Coordinates
datacolumns 11
datarows 56
range 0 0.55
inDegrees=yes
Units are S.I. units (second, meters, Newtons, ...)
If the header above contains a line with 'inDegrees', this indicates whether rotational values are in degrees (yes) or radians (no).
endheader
time	pelvis_tilt	pelvis_tx	pelvis_ty	hip_flexion_l	hip_flexion_r	knee_angle_l	knee_angle_r	ankle_angle_l	ankle_angle_r	lumbar
0	17.2799654	-0.02528542	0.72619958	56.82167855	56.82167855	-82.81501413	-82.81501413	7.6430005	7.6430005	-36.34218934
0.01	17.14572824	-0.02526096	0.72599724	56.97828594	56.97828594	-82.80069741	-82.80069741	7.2821621	7.2821621	-36.2997161
0.02	17.112141	-0.02522885	0.726006	57.00386357	57.00386357	-82.79293233	-82.79293233	7.28552632	7.28552632	-36.37207592
0.03	17.07316016	-0.02517637	0.72602114	57.03245509	57.03245509	-82.78503822	-82.78503822	7.29053146	7.29053146	-36.45084792
0.04	17.02997658	-0.02510385	0.72602696	57.06430744	57.06430744	-82.77682445	-82.77682445	7.29695125	7.29695125	-36.53589124
0.05	16.98254192	-0.02503397	0.72603867	57.10032569	57.10032569	-82.76797154	-82.76797154	7.30486932	7.30486932	-36.62859974
0.06	16.93075928	-0.02495364	0.72604941	57.14004639	57.14004639	-82.7586506	-82.7586506	7.31408702	7.31408702	-36.72853259
0.07	16.87454297	-0.02486188	0.72605856	57.1834982	57.1834982	-82.74886506	-82.74886506	7.32450173	7.32450173	-36.83588789
0.08	16.81380364	-0.02475735	0.72606611	57.23074518	57.23074518	-82.73862626	-82.73862626	7.33601823	7.33601823	-36.9508507
0.09	16.74840834	-0.02463871	0.72607255	57.28189238	57.28189238	-82.72794416	-82.72794416	7.34856321	7.34856321	-37.07358013
0.1	16.6779667	-0.02449098	0.72607592	57.3364788	57.3364788	-82.71684645	-82.71684645	7.36190482	7.36190482	-37.20366553
0.11	16.60293262	-0.02434402	0.72608381	57.39546969	57.39546969	-82.70525342	-82.70525342	7.37600645	7.37600645	-37.34229665
0.12	16.43265093	-0.02408689	0.72575983	57.60408674	57.60408674	-82.77587001	-82.77587001	7.53744048	7.53744048	-37.3669027
0.13	16.34362362	-0.02391844	0.72580993	57.65804574	57.65804574	-82.73258691	-82.73258691	7.54622329	7.54622329	-37.52063604
0.14	16.25325551	-0.02372623	0.72585181	57.72007891	57.72007891	-82.7035256	-82.7035256	7.55599047	7.55599047	-37.68503443
0.15	16.1586242	-0.02352011	0.72588038	57.7899563	57.7899563	-82.68167149	-82.68167149	7.56667825	7.56667825	-37.86089939
0.16	16.05760068	-0.02329709	0.72590446	57.86651897	57.86651897	-82.66191853	-82.66191853	7.57866011	7.57866011	-38.04418407
0.17	15.94922892	-0.02305603	0.72592535	57.94977393	57.94977393	-82.64238131	-82.64238131	7.59197623	7.59197623	-38.2338942
0.18	15.82966301	-0.02277465	0.72593286	58.04251318	58.04251318	-82.62167515	-82.62167515	7.60825448	7.60825448	-38.42474763
0.19	15.50953758	-0.02237393	0.72545757	58.38391343	58.38391343	-82.63866366	-82.63866366	7.73469138	7.73469138	-38.37626797
0.2	15.39620226	-0.02208182	0.72551323	58.46663103	58.46663103	-82.61998971	-82.61998971	7.74129602	7.74129602	-38.60683101
0.21	15.27119544	-0.02176459	0.72556586	58.5580216	58.5580216	-82.59666507	-82.59666507	7.74983606	7.74983606	-38.83983343
0.22	15.13450206	-0.02142099	0.72561686	58.65867352	58.65867352	-82.57083308	-82.57083308	7.76017883	7.76017883	-39.07564318
0.23	14.98344189	-0.02102972	0.72565824	58.77051768	58.77051768	-82.54292365	-82.54292365	7.77287391	7.77287391	-39.31006441
0.24	14.8181521	-0.02060332	0.72569073	58.89476337	58.89476337	-82.51420918	-82.51420918	7.78789646	7.78789646	-39.54397847
0.25	14.33156999	-0.01998728	0.72494456	59.41702252	59.41702252	-82.53857132	-82.53857132	7.88233799	7.88233799	-39.38892366
0.26	14.18240867	-0.01951751	0.72504702	59.51905218	59.51905218	-82.51524844	-82.51524844	7.88963613	7.88963613	-39.67618221
0.27	14.01852712	-0.01900919	0.72514788	59.6309253	59.6309253	-82.48479222	-82.48479222	7.89921279	7.89921279	-39.96329286
0.28	13.84134264	-0.0184679	0.72524603	59.75318455	59.75318455	-82.45041697	-82.45041697	7.910754	7.910754	-40.25179273
0.29	13.64541377	-0.01787401	0.72532923	59.88993051	59.88993051	-82.41150566	-82.41150566	7.92523295	7.92523295	-40.53287682
0.3	13.43485226	-0.01724917	0.72540077	60.0402773	60.0402773	-82.37219303	-82.37219303	7.94186374	7.94186374	-40.81356646
0.31	13.20570919	-0.0165827	0.72545304	60.20699561	60.20699561	-82.33161975	-82.33161975	7.96137587	7.96137587	-41.08809063
0.32	12.52225882	-0.0157273	0.72437639	60.944135	60.944135	-82.36373618	-82.36373618	8.06331251	8.06331251	-40.81505683
0.33	12.32828252	-0.01502512	0.72453429	61.06865089	61.06865089	-82.33282189	-82.33282189	8.07252392	8.07252392	-41.16842462
0.34	12.11379655	-0.01430025	0.72469035	61.20719074	61.20719074	-82.2902417	-82.2902417	8.08527026	8.08527026	-41.5183994
0.35	11.86885286	-0.01351367	0.7248235	61.3668124	61.3668124	-82.23512583	-82.23512583	8.10350567	8.10350567	-41.84731719
0.36	11.09551227	-0.01251256	0.72367114	62.17483543	62.17483543	-82.2428668	-82.2428668	8.22959965	8.22959965	-41.53290593
0.37	10.87807457	-0.01167174	0.72386992	62.3072568	62.3072568	-82.20854414	-82.20854414	8.23863778	8.23863778	-41.93395958
0.38	10.62754442	-0.01078674	0.72406457	62.4591232	62.4591232	-82.15108862	-82.15108862	8.2534192	8.2534192	-42.31097395
0.39	9.9657936	-0.00975657	0.7233053	63.09857086	63.09857086	-82.111886	-82.111886	8.33740609	8.33740609	-42.20056075
0.4	9.7207086	-0.00877929	0.72352448	63.2460557	63.2460557	-82.07467299	-82.07467299	8.34895999	8.34895999	-42.61429046
0.41	9.07086049	-0.00767583	0.72285855	63.85470694	63.85470694	-82.02610288	-82.02610288	8.42790039	8.42790039	-42.55419597
0.42	8.81274538	-0.00658929	0.72310846	64.005262	64.005262	-81.9892894	-81.9892894	8.44013974	8.44013974	-42.98336126
0.43	8.14565718	-0.0053829	0.72247802	64.61759767	64.61759767	-81.93551118	-81.93551118	8.53904559	8.53904559	-42.93551628
0.44	7.87458224	-0.00417518	0.72276766	64.76967873	64.76967873	-81.90017045	-81.90017045	8.55223416	8.55223416	-43.38137906
0.45	7.20927571	-0.0028481	0.72220287	65.36652452	65.36652452	-81.84903394	-81.84903394	8.67881333	8.67881333	-43.36653436
0.46	6.91855897	-0.00152465	0.7225318	65.52287027	65.52287027	-81.8101901	-81.8101901	8.69422994	8.69422994	-43.82777937
0.47	6.24280106	-9.663e-05	0.72201727	66.11670111	66.11670111	-81.7517189	-81.7517189	8.85185794	8.85185794	-43.83305405
0.48	5.94323675	0.00136584	0.72237793	66.27533387	66.27533387	-81.71923438	-81.71923438	8.86782345	8.86782345	-44.31109287
0.49	5.24454636	0.0029135	0.72189418	66.87728208	66.87728208	-81.65618676	-81.65618676	9.05628685	9.05628685	-44.32245061
0.5	4.9276928	0.00453165	0.72228776	67.0407638	67.0407638	-81.62504773	-81.62504773	9.07433173	9.07433173	-44.8125055
0.51	4.20227916	0.00620718	0.72176457	67.66990143	67.66990143	-81.58141149	-81.58141149	9.28283404	9.28283404	-44.81388928
0.52	3.63960047	0.00792883	0.72165814	68.10227071	68.10227071	-81.53723154	-81.53723154	9.40033037	9.40033037	-45.03561238
0.53	3.04279414	0.00970886	0.72147116	68.57595448	68.57595448	-81.50129139	-81.50129139	9.52031956	9.52031956	-45.22040545
0.54	2.43706965	0.01154445	0.72133799	69.04110428	69.04110428	-81.45050394	-81.45050394	9.62948434	9.62948434	-45.42949925
0.55	1.79734214	0.01343572	0.72113769	69.54472793	69.54472793	-81.40547834	-81.40547834	9.74180964	9.74180964	-45.60334101
